<?xml version="1.0"?>
<svg version="1.1" xmlns="http://www.w3.org/2000/svg" width="400px" height="100px" style=""><path fill="#ffffff" d="M28.708984375,91.9921875q-2.8564453125,0-4.9072265625-0.6103515625l0-5.859375q1.708984375,0.4638671875,3.4912109375,0.4638671875q1.8798828125,0,2.74658203125-1.0498046875t0.86669921875-3.1005859375l0-29.150390625l7.4462890625,0l0,30.2490234375q0,4.345703125-2.5146484375,6.70166015625t-7.12890625,2.35595703125z M30.5888671875,45.6298828125q0-3.6376953125,4.052734375-3.6376953125t4.052734375,3.6376953125q0,1.7333984375-1.01318359375,2.69775390625t-3.03955078125,0.96435546875q-4.052734375,0-4.052734375-3.662109375z M66.935791015625,79.98046875l-1.4404296875-3.7109375l-0.1953125,0q-1.8798828125,2.3681640625-3.86962890625,3.28369140625t-5.18798828125,0.91552734375q-3.9306640625,0-6.18896484375-2.24609375t-2.25830078125-6.396484375q0-4.345703125,3.03955078125-6.40869140625t9.16748046875-2.28271484375l4.736328125-0.146484375l0-1.1962890625q0-4.150390625-4.248046875-4.150390625q-3.271484375,0-7.6904296875,1.9775390625l-2.4658203125-5.029296875q4.7119140625-2.4658203125,10.44921875-2.4658203125q5.4931640625,0,8.4228515625,2.392578125t2.9296875,7.275390625l0,18.1884765625l-5.2001953125,0z M64.738525390625,67.333984375l-2.880859375,0.09765625q-3.2470703125,0.09765625-4.833984375,1.171875t-1.5869140625,3.271484375q0,3.1494140625,3.61328125,3.1494140625q2.587890625,0,4.13818359375-1.4892578125t1.55029296875-3.955078125l0-2.24609375z M90.39208984375,65.13671875l3.2470703125-4.150390625l7.6416015625-8.30078125l8.3984375,0l-10.83984375,11.8408203125l11.4990234375,15.4541015625l-8.59375,0l-7.861328125-11.0595703125l-3.1982421875,2.5634765625l0,8.49609375l-7.4462890625,0l0-37.98828125l7.4462890625,0l0,16.943359375l-0.390625,6.201171875l0.09765625,0z M137.01733398438,79.98046875l-1.0009765625-3.4912109375l-0.390625,0q-1.1962890625,1.904296875-3.3935546875,2.94189453125t-5.0048828125,1.03759765625q-4.8095703125,0-7.2509765625-2.57568359375t-2.44140625-7.40966796875l0-17.7978515625l7.4462890625,0l0,15.9423828125q0,2.9541015625,1.0498046875,4.43115234375t3.3447265625,1.47705078125q3.125,0,4.5166015625-2.08740234375t1.3916015625-6.92138671875l0-12.841796875l7.4462890625,0l0,27.294921875l-5.712890625,0z M169.1650390625,52.1728515625q4.833984375,0,7.568359375,3.77197265625t2.734375,10.33935546875q0,6.7626953125-2.81982421875,10.4736328125t-7.67822265625,3.7109375q-4.8095703125,0-7.5439453125-3.4912109375l-0.5126953125,0l-1.2451171875,3.0029296875l-5.6884765625,0l0-37.98828125l7.4462890625,0l0,8.837890625q0,1.6845703125-0.29296875,5.3955078125l0.29296875,0q2.6123046875-4.052734375,7.7392578125-4.052734375z M166.7724609375,58.1298828125q-2.7587890625,0-4.0283203125,1.69677734375t-1.318359375,5.60302734375l0,0.8056640625q0,4.39453125,1.30615234375,6.298828125t4.13818359375,1.904296875q2.294921875,0,3.64990234375-2.11181640625t1.35498046875-6.14013671875t-1.3671875-6.04248046875t-3.7353515625-2.01416015625z"/><path fill="#e62727" d="M224.091796875,52.1728515625q4.833984375,0,7.568359375,3.77197265625t2.734375,10.33935546875q0,6.7626953125-2.81982421875,10.4736328125t-7.67822265625,3.7109375q-4.8095703125,0-7.5439453125-3.4912109375l-0.5126953125,0l-1.2451171875,3.0029296875l-5.6884765625,0l0-37.98828125l7.4462890625,0l0,8.837890625q0,1.6845703125-0.29296875,5.3955078125l0.29296875,0q2.6123046875-4.052734375,7.7392578125-4.052734375z M221.69921875,58.1298828125q-2.7587890625,0-4.0283203125,1.69677734375t-1.318359375,5.60302734375l0,0.8056640625q0,4.39453125,1.30615234375,6.298828125t4.13818359375,1.904296875q2.294921875,0,3.64990234375-2.11181640625t1.35498046875-6.14013671875t-1.3671875-6.04248046875t-3.7353515625-2.01416015625z M261.31762695312,79.98046875l-1.4404296875-3.7109375l-0.1953125,0q-1.8798828125,2.3681640625-3.86962890625,3.28369140625t-5.18798828125,0.91552734375q-3.9306640625,0-6.18896484375-2.24609375t-2.25830078125-6.396484375q0-4.345703125,3.03955078125-6.40869140625t9.16748046875-2.28271484375l4.736328125-0.146484375l0-1.1962890625q0-4.150390625-4.248046875-4.150390625q-3.271484375,0-7.6904296875,1.9775390625l-2.4658203125-5.029296875q4.7119140625-2.4658203125,10.44921875-2.4658203125q5.4931640625,0,8.4228515625,2.392578125t2.9296875,7.275390625l0,18.1884765625l-5.2001953125,0z M259.12036132812,67.333984375l-2.880859375,0.09765625q-3.2470703125,0.09765625-4.833984375,1.171875t-1.5869140625,3.271484375q0,3.1494140625,3.61328125,3.1494140625q2.587890625,0,4.13818359375-1.4892578125t1.55029296875-3.955078125l0-2.24609375z M292.85498046875,52.1728515625q1.513671875,0,2.5146484375,0.2197265625l-0.5615234375,6.982421875q-0.9033203125-0.244140625-2.197265625-0.244140625q-3.564453125,0-5.55419921875,1.8310546875t-1.98974609375,5.126953125l0,13.8916015625l-7.4462890625,0l0-27.294921875l5.6396484375,0l1.0986328125,4.58984375l0.3662109375,0q1.26953125-2.294921875,3.43017578125-3.69873046875t4.69970703125-1.40380859375z M321.09643554688,79.98046875l-1.4404296875-3.7109375l-0.1953125,0q-1.8798828125,2.3681640625-3.86962890625,3.28369140625t-5.18798828125,0.91552734375q-3.9306640625,0-6.18896484375-2.24609375t-2.25830078125-6.396484375q0-4.345703125,3.03955078125-6.40869140625t9.16748046875-2.28271484375l4.736328125-0.146484375l0-1.1962890625q0-4.150390625-4.248046875-4.150390625q-3.271484375,0-7.6904296875,1.9775390625l-2.4658203125-5.029296875q4.7119140625-2.4658203125,10.44921875-2.4658203125q5.4931640625,0,8.4228515625,2.392578125t2.9296875,7.275390625l0,18.1884765625l-5.2001953125,0z M318.89916992188,67.333984375l-2.880859375,0.09765625q-3.2470703125,0.09765625-4.833984375,1.171875t-1.5869140625,3.271484375q0,3.1494140625,3.61328125,3.1494140625q2.587890625,0,4.13818359375-1.4892578125t1.55029296875-3.955078125l0-2.24609375z M362.5947265625,79.98046875l-7.4462890625,0l0-15.9423828125q0-2.9541015625-1.0498046875-4.43115234375t-3.3447265625-1.47705078125q-3.125,0-4.5166015625,2.08740234375t-1.3916015625,6.92138671875l0,12.841796875l-7.4462890625,0l0-27.294921875l5.6884765625,0l1.0009765625,3.4912109375l0.4150390625,0q1.2451171875-1.9775390625,3.43017578125-2.99072265625t4.96826171875-1.01318359375q4.7607421875,0,7.2265625,2.57568359375t2.4658203125,7.43408203125l0,17.7978515625z M372.64770507812,76.4892578125q0-2.05078125,1.0986328125-3.1005859375t3.1982421875-1.0498046875q2.0263671875,0,3.13720703125,1.07421875t1.11083984375,3.076171875q0,1.9287109375-1.123046875,3.03955078125t-3.125,1.11083984375q-2.05078125,0-3.173828125-1.08642578125t-1.123046875-3.06396484375z"/></svg>
